<?xml version="1.0" standalone="no"?>
<!DOCTYPE svg PUBLIC "-//W3C//DTD SVG 20010904//EN"
 "http://www.w3.org/TR/2001/REC-SVG-20010904/DTD/svg10.dtd">
<svg version="1.0" xmlns="http://www.w3.org/2000/svg"
 width="512.000000pt" height="512.000000pt" viewBox="0 0 512.000000 512.000000"
 preserveAspectRatio="xMidYMid meet">
<metadata>
Created by potrace 1.11, written by Peter Selinger 2001-2013
</metadata>
<g transform="translate(0.000000,512.000000) scale(0.100000,-0.100000)"
fill="#000000" stroke="none">
<path d="M0 2560 l0 -2560 2560 0 2560 0 0 2560 0 2560 -2560 0 -2560 0 0
-2560z m2628 1673 c-32 -2 -86 -2 -120 0 -35 2 -9 3 57 3 66 0 94 -1 63 -3z
m-270 -10 c-16 -2 -40 -2 -55 0 -16 2 -3 4 27 4 30 0 43 -2 28 -4z m460 0
c-16 -2 -40 -2 -55 0 -16 2 -3 4 27 4 30 0 43 -2 28 -4z m-575 -10 c-13 -2
-33 -2 -45 0 -13 2 -3 4 22 4 25 0 35 -2 23 -4z m680 0 c-13 -2 -33 -2 -45 0
-13 2 -3 4 22 4 25 0 35 -2 23 -4z m-760 -10 c-7 -2 -21 -2 -30 0 -10 3 -4 5
12 5 17 0 24 -2 18 -5z m830 0 c-7 -2 -21 -2 -30 0 -10 3 -4 5 12 5 17 0 24
-2 18 -5z m-895 -10 c-10 -2 -26 -2 -35 0 -10 3 -2 5 17 5 19 0 27 -2 18 -5z
m960 0 c-10 -2 -26 -2 -35 0 -10 3 -2 5 17 5 19 0 27 -2 18 -5z m-1025 -10
c-7 -2 -19 -2 -25 0 -7 3 -2 5 12 5 14 0 19 -2 13 -5z m1080 0 c-7 -2 -19 -2
-25 0 -7 3 -2 5 12 5 14 0 19 -2 13 -5z m-1130 -10 c-7 -2 -19 -2 -25 0 -7 3
-2 5 12 5 14 0 19 -2 13 -5z m1180 0 c-7 -2 -19 -2 -25 0 -7 3 -2 5 12 5 14 0
19 -2 13 -5z m-1230 -10 c-7 -2 -19 -2 -25 0 -7 3 -2 5 12 5 14 0 19 -2 13 -5z
m1280 0 c-7 -2 -19 -2 -25 0 -7 3 -2 5 12 5 14 0 19 -2 13 -5z m-1326 -9 c-3
-3 -12 -4 -19 -1 -8 3 -5 6 6 6 11 1 17 -2 13 -5z m1370 0 c-3 -3 -12 -4 -19
-1 -8 3 -5 6 6 6 11 1 17 -2 13 -5z m-1408 -8 c-8 -7 -162 -47 -166 -43 -2 3
29 14 69 25 70 20 106 26 97 18z m1513 -17 c44 -12 77 -23 75 -26 -4 -4 -158
36 -166 43 -9 8 14 4 91 -17z m-1717 -44 c-16 -8 -37 -14 -45 -14 -8 0 1 7 20
14 46 18 64 17 25 0z m1840 5 c13 -6 15 -9 5 -9 -8 0 -22 4 -30 9 -18 12 -2
12 25 0z m90 -31 c22 -10 29 -16 16 -13 -37 10 -88 33 -71 33 8 0 33 -9 55
-20z m-2030 -8 c-47 -21 -92 -36 -85 -28 7 8 103 46 115 46 6 0 -8 -8 -30 -18z
m2125 -27 c23 -9 39 -18 37 -20 -2 -3 -24 4 -48 15 -54 24 -45 27 11 5z
m-2279 -34 c-35 -17 -66 -30 -70 -29 -10 1 113 59 124 59 6 -1 -19 -14 -54
-30z m2359 0 c8 -5 11 -10 5 -10 -5 0 -17 5 -25 10 -8 5 -10 10 -5 10 6 0 17
-5 25 -10z m80 -35 c14 -8 21 -14 15 -14 -5 0 -21 6 -35 14 -14 8 -20 14 -15
14 6 0 21 -6 35 -14z m-2535 -7 c-11 -6 -27 -16 -35 -22 -9 -6 -5 -1 8 12 13
12 28 22 35 22 7 0 3 -6 -8 -12z m2583 -33 c-3 -3 -9 2 -12 12 -6 14 -5 15 5
6 7 -7 10 -15 7 -18z m-2519 -262 c66 -134 119 -243 116 -243 -5 0 -221 427
-237 469 -20 53 4 9 121 -226z m2512 200 c-12 -20 -14 -14 -5 12 4 9 9 14 11
11 3 -2 0 -13 -6 -23z m-28 -58 c-9 -19 -18 -33 -21 -31 -4 5 26 66 33 66 3 0
-3 -16 -12 -35z m-45 -90 c-12 -24 -23 -43 -26 -41 -4 5 36 86 43 86 3 0 -5
-20 -17 -45z m-40 -80 c-6 -14 -13 -23 -15 -21 -5 5 15 46 22 46 3 0 -1 -11
-7 -25z m-35 -70 c-9 -19 -18 -33 -21 -31 -4 5 26 66 33 66 3 0 -3 -16 -12
-35z m-45 -90 c-12 -24 -23 -43 -26 -41 -4 5 36 86 43 86 3 0 -5 -20 -17 -45z
m62 -100 c0 -3 -18 4 -40 15 -22 11 -40 23 -40 25 0 3 18 -4 40 -15 22 -11 40
-23 40 -25z m-2300 30 c0 -2 -13 -11 -30 -20 -38 -19 -40 -11 -2 9 31 17 32
18 32 11z m-90 -49 c0 -2 -22 -18 -50 -35 -27 -17 -50 -29 -50 -26 0 4 90 64
98 65 1 0 2 -2 2 -4z m2460 -22 c0 -2 -9 0 -20 6 -11 6 -20 13 -20 16 0 2 9 0
20 -6 11 -6 20 -13 20 -16z m-2570 -48 c0 -2 -12 -11 -27 -20 l-28 -17 24 20
c23 21 31 25 31 17z m2686 -27 c3 -6 -5 -3 -20 6 -14 10 -26 19 -26 22 0 7 39
-17 46 -28z m-2746 -13 c0 -3 -15 -14 -32 -26 l-33 -22 30 26 c31 27 35 29 35
22z m2820 -42 c0 -3 -13 4 -30 16 -16 12 -30 24 -30 26 0 3 14 -4 30 -16 17
-12 30 -24 30 -26z m-2890 -7 c0 -2 -24 -23 -52 -46 l-53 -43 50 46 c48 44 55
50 55 43z m3000 -84 c0 -3 -22 14 -50 37 -27 23 -50 44 -50 47 0 3 23 -14 50
-37 28 -23 50 -44 50 -47z m-3110 -6 c0 -2 -19 -21 -42 -42 l-43 -40 40 43
c36 39 45 47 45 39z m3165 -37 c21 -22 37 -40 34 -40 -3 0 -23 18 -44 40 -21
22 -37 40 -34 40 3 0 23 -18 44 -40z m-3275 -63 c0 -2 -12 -14 -27 -28 l-28
-24 24 28 c23 25 31 32 31 24z m3370 -22 c13 -14 21 -25 18 -25 -2 0 -15 11
-28 25 -13 14 -21 25 -18 25 2 0 15 -11 28 -25z m133 -150 c47 -58 25 -38 -59
55 -32 36 -41 49 -20 30 21 -19 56 -57 79 -85z m-3573 92 c0 -2 -19 -21 -42
-42 l-43 -40 40 43 c36 39 45 47 45 39z m-136 -157 c-61 -76 -86 -97 -33 -27
34 44 81 97 86 97 1 0 -22 -31 -53 -70z m3805 -55 c47 -65 31 -56 -20 13 -23
31 -36 52 -28 45 8 -7 30 -33 48 -58z m-3905 -80 c-20 -30 -39 -55 -41 -55 -5
0 3 14 39 68 16 23 31 42 34 42 2 0 -12 -25 -32 -55z m3979 -24 c27 -46 14
-38 -18 12 -16 23 -22 37 -14 30 8 -6 22 -25 32 -42z m-4053 -91 c-6 -11 -13
-20 -16 -20 -2 0 0 9 6 20 6 11 13 20 16 20 2 0 0 -9 -6 -20z m4110 0 c6 -11
8 -20 6 -20 -3 0 -10 9 -16 20 -6 11 -8 20 -6 20 3 0 10 -9 16 -20z m-4160
-90 c-11 -22 -23 -40 -25 -40 -3 0 4 18 15 40 11 22 23 40 25 40 3 0 -4 -18
-15 -40z m4200 20 c6 -11 8 -20 6 -20 -3 0 -10 9 -16 20 -6 11 -8 20 -6 20 3
0 10 -9 16 -20z m34 -66 c3 -8 2 -12 -4 -9 -6 3 -10 10 -10 16 0 14 7 11 14
-7z m65 -139 c0 -5 -8 6 -19 25 -11 19 -19 40 -19 45 0 6 8 -6 19 -25 11 -19
19 -39 19 -45z m-4383 18 c-8 -15 -15 -25 -16 -21 0 12 23 58 27 54 3 -2 -2
-17 -11 -33z m-35 -80 c-12 -20 -14 -14 -5 12 4 9 9 14 11 11 3 -2 0 -13 -6
-23z m4449 -8 c0 -5 -5 -3 -10 5 -5 8 -10 20 -10 25 0 6 5 3 10 -5 5 -8 10
-19 10 -25z m-4479 -72 c-12 -20 -14 -14 -5 12 4 9 9 14 11 11 3 -2 0 -13 -6
-23z m4509 -8 c0 -5 -5 -3 -10 5 -5 8 -10 20 -10 25 0 6 5 3 10 -5 5 -8 10
-19 10 -25z m39 -125 c0 -9 -4 -8 -9 5 -5 11 -9 27 -9 35 0 9 4 8 9 -5 5 -11
9 -27 9 -35z m-4592 -2 c-3 -8 -6 -5 -6 6 -1 11 2 17 5 13 3 -3 4 -12 1 -19z
m-20 -70 c-3 -8 -6 -5 -6 6 -1 11 2 17 5 13 3 -3 4 -12 1 -19z m4630 0 c-3 -8
-6 -5 -6 6 -1 11 2 17 5 13 3 -3 4 -12 1 -19z m-4640 -40 c-3 -8 -6 -5 -6 6
-1 11 2 17 5 13 3 -3 4 -12 1 -19z m4650 0 c-3 -8 -6 -5 -6 6 -1 11 2 17 5 13
3 -3 4 -12 1 -19z m-4660 -40 c-3 -8 -6 -5 -6 6 -1 11 2 17 5 13 3 -3 4 -12 1
-19z m4670 0 c-3 -8 -6 -5 -6 6 -1 11 2 17 5 13 3 -3 4 -12 1 -19z m10 -50
c-3 -7 -5 -2 -5 12 0 14 2 19 5 13 2 -7 2 -19 0 -25z m-4690 0 c-3 -8 -6 -5
-6 6 -1 11 2 17 5 13 3 -3 4 -12 1 -19z m-10 -50 c-3 -8 -6 -5 -6 6 -1 11 2
17 5 13 3 -3 4 -12 1 -19z m4710 0 c-3 -8 -6 -5 -6 6 -1 11 2 17 5 13 3 -3 4
-12 1 -19z m-4720 -65 c-3 -10 -5 -4 -5 12 0 17 2 24 5 18 2 -7 2 -21 0 -30z
m4730 5 c-3 -7 -5 -2 -5 12 0 14 2 19 5 13 2 -7 2 -19 0 -25z m10 -75 c-3 -10
-5 -2 -5 17 0 19 2 27 5 18 2 -10 2 -26 0 -35z m-4750 5 c-3 -7 -5 -2 -5 12 0
14 2 19 5 13 2 -7 2 -19 0 -25z m-10 -100 c-2 -13 -4 -3 -4 22 0 25 2 35 4 23
2 -13 2 -33 0 -45z m4770 -5 c-2 -16 -4 -5 -4 22 0 28 2 40 4 28 2 -13 2 -35
0 -50z m-4780 -135 c-2 -18 -4 -6 -4 27 0 33 2 48 4 33 2 -15 2 -42 0 -60z
m4790 0 c-2 -18 -4 -6 -4 27 0 33 2 48 4 33 2 -15 2 -42 0 -60z m-4887 -35
c-14 -3 -34 -12 -45 -21 -20 -17 -20 -17 -1 6 12 13 29 21 45 21 l26 -2 -25
-4z m5026 -15 c19 -23 19 -23 -1 -7 -11 10 -29 19 -40 22 -19 4 -19 5 1 6 11
0 29 -9 40 -21z m-3958 -128 l1085 -5 10 -30 c34 -103 139 -199 244 -224 28
-7 32 -9 13 -10 -36 -1 -121 41 -168 84 -44 39 -86 104 -97 148 l-7 27 -1069
0 c-911 0 -1075 2 -1104 14 -19 8 -35 20 -35 27 0 7 8 4 21 -7 20 -18 57 -19
1107 -24z m3972 29 c0 -5 -16 -17 -35 -25 -29 -12 -193 -14 -1105 -14 -853 0
-1070 -3 -1070 -13 0 -23 -52 -112 -89 -150 -39 -41 -141 -97 -175 -96 -12 0
-5 6 19 13 98 31 171 95 216 189 l29 62 1085 5 c1015 5 1085 6 1102 23 20 20
23 21 23 6z m-2517 -306 c-13 -2 -35 -2 -50 0 -16 2 -5 4 22 4 28 0 40 -2 28
-4z"/>
</g>
</svg>
