<?xml version="1.0" standalone="no"?>
<!DOCTYPE svg PUBLIC "-//W3C//DTD SVG 20010904//EN"
 "http://www.w3.org/TR/2001/REC-SVG-20010904/DTD/svg10.dtd">
<svg version="1.0" xmlns="http://www.w3.org/2000/svg"
 width="512.000000pt" height="512.000000pt" viewBox="0 0 512.000000 512.000000"
 preserveAspectRatio="xMidYMid meet">
<metadata>
Created by potrace 1.11, written by Peter Selinger 2001-2013
</metadata>
<g transform="translate(0.000000,512.000000) scale(0.100000,-0.100000)"
fill="#000000" stroke="none">
<path d="M2477 4234 c-1 -1 -54 -5 -117 -8 -110 -6 -143 -9 -220 -22 -19 -3
-51 -8 -70 -10 -54 -7 -255 -53 -349 -80 -105 -31 -249 -84 -366 -137 -105
-46 -115 -53 -115 -77 0 -10 52 -122 115 -250 63 -127 115 -233 115 -235 0 -3
-24 -17 -52 -31 -301 -152 -648 -470 -856 -786 -240 -362 -380 -795 -396
-1223 l-2 -60 -63 -5 c-51 -4 -67 -10 -82 -29 -25 -30 -19 -79 12 -103 20 -17
88 -18 1103 -18 l1082 0 27 -63 c80 -183 292 -261 471 -173 84 42 147 113 175
198 l12 37 367 1 c1872 0 1798 -1 1821 18 31 24 37 73 12 103 -15 19 -31 25
-83 29 l-63 5 -1 58 c-6 193 -45 419 -110 626 -138 443 -424 860 -789 1151
-91 72 -274 194 -352 235 -46 23 -51 29 -44 48 5 12 56 118 115 234 58 117
106 222 106 233 0 11 -10 26 -22 34 -65 41 -413 174 -518 197 -19 4 -75 17
-123 28 -48 12 -104 24 -124 27 -19 3 -45 8 -57 10 -11 2 -41 7 -66 10 -25 3
-56 7 -69 9 -57 10 -416 25 -424 19z"/>
</g>
</svg>
