<?xml version="1.0" standalone="no"?>
<!DOCTYPE svg PUBLIC "-//W3C//DTD SVG 20010904//EN"
 "http://www.w3.org/TR/2001/REC-SVG-20010904/DTD/svg10.dtd">
<svg version="1.0" xmlns="http://www.w3.org/2000/svg"
 width="512.000000pt" height="512.000000pt" viewBox="0 0 512.000000 512.000000"
 preserveAspectRatio="xMidYMid meet">
<metadata>
Created by potrace 1.11, written by Peter Selinger 2001-2013
</metadata>
<g transform="translate(0.000000,512.000000) scale(0.100000,-0.100000)"
fill="#000000" stroke="none">
<path d="M3851 3905 c0 -5 4 -19 8 -29 7 -19 8 -19 13 2 4 12 2 20 -2 17 -5
-3 -11 1 -13 7 -3 7 -5 9 -6 3z"/>
<path d="M3352 3280 c-57 -115 -111 -215 -119 -222 -14 -11 -15 -10 -10 7 4
11 3 26 -2 34 -6 9 -8 5 -7 -15 1 -16 5 -34 9 -41 4 -6 3 -14 -2 -17 -5 -4
-11 -3 -14 1 -2 5 -2 2 0 -6 2 -7 -6 -29 -18 -48 -17 -27 -24 -32 -31 -21 -7
10 -8 8 -4 -5 5 -17 -18 -77 -30 -77 -3 0 -2 5 2 12 4 7 3 8 -5 4 -6 -4 -9
-11 -6 -16 3 -5 -12 -39 -35 -76 -22 -36 -40 -70 -40 -75 0 -5 -4 -9 -9 -9 -5
0 -13 -10 -17 -22 -8 -27 -133 -239 -504 -859 -147 -245 -273 -462 -279 -482
l-13 -37 -930 0 -931 0 7 113 c14 226 67 460 156 689 33 84 101 220 126 254
13 17 24 35 24 39 0 4 11 23 25 41 14 18 25 35 25 39 0 24 189 254 299 362 82
82 281 242 351 282 38 22 175 104 178 107 2 1 -3 15 -11 31 -32 62 -39 82 -32
94 5 6 4 10 -1 7 -5 -3 -15 0 -22 8 -11 12 -9 16 10 23 13 6 18 10 12 10 -15
1 -84 -28 -84 -35 0 -3 5 -2 12 2 7 4 8 3 4 -5 -4 -6 -11 -9 -16 -6 -12 8 -97
-40 -199 -112 -46 -32 -98 -68 -116 -80 -19 -12 -38 -30 -44 -40 -5 -10 -13
-18 -18 -18 -4 0 -7 -4 -5 -8 1 -5 -2 -5 -8 -2 -14 9 -304 -281 -295 -295 3
-6 3 -9 -2 -8 -4 2 -9 -1 -10 -6 0 -5 -8 -13 -17 -18 -9 -5 -27 -24 -39 -42
-12 -19 -42 -62 -67 -97 -42 -59 -48 -74 -53 -121 -1 -10 -5 -14 -10 -9 -5 5
-4 19 3 32 22 43 -7 5 -33 -43 -18 -32 -22 -48 -14 -52 7 -2 4 -5 -5 -5 -23
-1 -40 -35 -33 -68 4 -21 3 -23 -3 -9 -6 14 -11 16 -16 8 -4 -7 -4 -17 0 -24
5 -7 3 -8 -6 -3 -10 6 -12 4 -7 -8 3 -9 2 -16 -4 -14 -12 3 -97 -189 -103
-233 -1 -9 -5 -21 -9 -27 -18 -29 -55 -149 -73 -238 -2 -11 -11 -51 -19 -90
-19 -88 -25 -131 -32 -225 -2 -41 -7 -103 -10 -137 l-5 -63 -42 0 c-62 0 -102
-17 -116 -49 -13 -33 0 -75 29 -90 13 -8 357 -11 1098 -11 l1079 0 28 -65
c119 -273 513 -273 632 0 l28 65 1079 0 c741 0 1085 3 1098 11 29 15 42 57 29
90 -14 32 -54 49 -116 49 l-42 0 -5 63 c-3 34 -8 96 -10 137 -7 94 -13 137
-32 225 -8 39 -17 79 -19 90 -18 89 -55 209 -73 238 -4 6 -8 18 -9 27 -6 44
-91 236 -103 233 -6 -2 -7 5 -4 14 5 12 3 14 -7 8 -9 -5 -11 -4 -6 3 4 7 4 17
0 24 -5 8 -10 6 -16 -8 -6 -14 -7 -12 -3 9 7 33 -10 67 -33 68 -9 0 -12 3 -5
5 8 4 4 20 -14 52 -26 48 -55 86 -33 43 7 -13 8 -27 3 -32 -5 -5 -9 -1 -10 9
-5 47 -11 62 -53 121 -25 35 -55 78 -67 97 -12 18 -30 37 -39 42 -9 5 -17 13
-17 18 -1 5 -6 8 -10 6 -5 -1 -6 2 -3 6 3 5 -20 37 -50 71 -56 60 -85 79 -64
42 7 -14 7 -22 0 -26 -6 -4 -10 -3 -9 2 3 20 -2 34 -11 28 -5 -3 -7 0 -4 8 6
18 -21 41 -37 31 -8 -4 -9 -3 -5 4 6 11 0 14 -21 11 -5 -1 -7 -5 -5 -11 1 -5
-2 -7 -8 -3 -8 5 -8 11 1 21 12 14 32 8 74 -24 11 -8 -17 22 -63 67 -46 45
-88 79 -93 75 -5 -3 -8 -1 -7 4 2 6 -1 11 -7 12 -5 1 -14 8 -18 16 -5 8 -23
25 -42 37 -18 12 -70 48 -116 80 -45 32 -102 69 -125 82 -38 22 -43 22 -47 7
-4 -13 -5 -12 -6 4 -1 14 -13 27 -36 38 -19 9 -38 22 -42 29 -10 16 -146 77
-171 77 -12 0 -45 -57 -120 -210z m308 101 c0 -5 -8 -15 -17 -22 -16 -12 -17
-12 -6 2 7 9 10 19 6 22 -3 4 -1 7 5 7 7 0 12 -4 12 -9z m35 -11 c3 -5 -1 -10
-10 -10 -9 0 -13 5 -10 10 3 6 8 10 10 10 2 0 7 -4 10 -10z m145 -86 c0 -3
-10 0 -21 7 -17 9 -24 8 -31 -2 -6 -11 -8 -9 -6 6 2 12 -2 19 -10 17 -8 -1
-11 2 -7 7 5 9 75 -24 75 -35z m-2523 12 c0 -8 -9 -14 -19 -13 -18 1 -18 2 -2
14 22 16 21 16 21 -1z m123 0 c0 -3 -4 -8 -10 -11 -5 -3 -10 -1 -10 4 0 6 5
11 10 11 6 0 10 -2 10 -4z m-169 -43 c13 -16 12 -17 -3 -4 -10 7 -18 15 -18
17 0 8 8 3 21 -13z m2599 13 c0 -2 -8 -10 -17 -17 -16 -13 -17 -12 -4 4 13 16
21 21 21 13z m-153 -118 c23 -15 44 -28 48 -28 18 0 255 -192 336 -273 110
-108 299 -338 299 -362 0 -4 11 -21 25 -39 14 -18 25 -37 25 -41 0 -4 11 -22
24 -39 25 -34 93 -170 126 -254 89 -229 142 -463 156 -689 l7 -113 -902 0
c-495 0 -901 1 -901 3 0 2 99 266 220 588 375 994 420 1116 420 1153 0 44 -15
84 -42 113 -18 20 -20 26 -10 49 l12 25 58 -32 c31 -18 76 -45 99 -61z m-2462
73 c6 -1 4 -5 -3 -9 -7 -5 -23 -7 -35 -6 -29 3 -29 3 -23 12 3 5 15 8 28 6 13
-1 28 -3 33 -3z m2663 -6 c2 -8 -11 -10 -50 -6 -10 1 -10 3 0 9 16 11 46 9 50
-3z m-2758 -39 c0 -3 -4 -8 -10 -11 -5 -3 -10 -1 -10 4 0 6 5 11 10 11 6 0 10
-2 10 -4z m2820 -6 c0 -5 -2 -10 -4 -10 -3 0 -8 5 -11 10 -3 6 -1 10 4 10 6 0
11 -4 11 -10z m-2940 -96 c0 -8 -19 -13 -24 -6 -3 5 1 9 9 9 8 0 15 -2 15 -3z
m3070 0 c0 -8 -19 -13 -24 -6 -3 5 1 9 9 9 8 0 15 -2 15 -3z m-3143 -32 c-10
-10 -14 -22 -10 -27 5 -4 2 -5 -5 -1 -11 6 -10 12 4 27 9 10 19 19 22 19 3 0
-2 -8 -11 -18z m3197 -1 c14 -15 15 -21 4 -27 -7 -4 -10 -3 -5 1 4 5 0 17 -10
27 -9 10 -14 18 -11 18 3 0 13 -9 22 -19z m-3215 -55 c8 -10 9 -16 1 -21 -6
-4 -9 -2 -8 3 2 6 0 10 -4 11 -22 3 -28 0 -22 -11 4 -7 3 -8 -5 -4 -16 10 -43
-13 -37 -31 3 -8 1 -11 -4 -8 -9 6 -12 -1 -9 -22 1 -5 5 -7 11 -5 5 1 7 -2 3
-8 -5 -8 -11 -8 -21 1 -19 16 7 64 49 89 38 24 32 23 46 6z m-123 -98 c4 -7 3
-10 -1 -5 -5 4 -18 -1 -29 -10 -21 -18 -21 -18 -2 5 22 26 23 26 32 10z m3500
-10 c19 -23 19 -23 -2 -5 -11 9 -24 14 -29 10 -4 -5 -5 -2 -1 5 9 16 10 16 32
-10z m-3540 -40 c-3 -22 -17 -39 -26 -33 -6 4 -4 14 3 25 13 23 26 26 23 8z
m3571 -8 c7 -11 9 -21 3 -25 -9 -6 -23 11 -26 33 -3 18 10 15 23 -8z m-3730
-195 c0 -8 -4 -12 -9 -9 -5 3 -6 10 -3 15 9 13 12 11 12 -6z m3878 6 c3 -5 2
-12 -3 -15 -5 -3 -9 1 -9 9 0 17 3 19 12 6z m-3945 -225 c0 -3 -4 -8 -10 -11
-5 -3 -10 -1 -10 4 0 6 5 11 10 11 6 0 10 -2 10 -4z m4020 -6 c0 -5 -2 -10 -4
-10 -3 0 -8 5 -11 10 -3 6 -1 10 4 10 6 0 11 -4 11 -10z m-4214 -248 c-17 -16
-18 -16 -5 5 7 12 15 20 18 17 3 -2 -3 -12 -13 -22z m4394 3 c14 -19 14 -19
-2 -6 -10 7 -18 18 -18 24 0 6 1 8 3 6 1 -2 9 -13 17 -24z m-4493 -292 c-3
-10 -5 -4 -5 12 0 17 2 24 5 18 2 -7 2 -21 0 -30z m4590 0 c-3 -10 -5 -4 -5
12 0 17 2 24 5 18 2 -7 2 -21 0 -30z m-4510 -225 c-3 -7 -5 -2 -5 12 0 14 2
19 5 13 2 -7 2 -19 0 -25z m4430 0 c-3 -7 -5 -2 -5 12 0 14 2 19 5 13 2 -7 2
-19 0 -25z m-2327 -328 c-6 -11 -13 -20 -16 -20 -2 0 0 9 6 20 6 11 13 20 16
20 2 0 0 -9 -6 -20z m230 0 c6 -11 8 -20 6 -20 -3 0 -10 9 -16 20 -6 11 -8 20
-6 20 3 0 10 -9 16 -20z m-243 -92 c-3 -8 -6 -5 -6 6 -1 11 2 17 5 13 3 -3 4
-12 1 -19z m250 0 c-3 -8 -6 -5 -6 6 -1 11 2 17 5 13 3 -3 4 -12 1 -19z m-243
-64 c3 -8 2 -12 -4 -9 -6 3 -10 10 -10 16 0 14 7 11 14 -7z m237 -7 c-10 -9
-11 -8 -5 6 3 10 9 15 12 12 3 -3 0 -11 -7 -18z"/>
<path d="M3167 2993 c-4 -3 -7 -11 -7 -17 0 -6 5 -5 12 2 6 6 9 14 7 17 -3 3
-9 2 -12 -2z"/>
<path d="M1751 2884 c0 -11 3 -14 6 -6 3 7 2 16 -1 19 -3 4 -6 -2 -5 -13z"/>
</g>
</svg>
